{"accessors" : [{"bufferView" : 0, "byteOffset" : 0, "componentType" : 5123, "count" : 67332, "type" : "SCALAR", "max" : [54529], "min" : [0]}, {"bufferView" : 1, "byteOffset" : 0, "componentType" : 5126, "count" : 54530, "type" : "VEC3", "max" : [1.0215535163879395, 1.5600653886795044, 0.9791308045387268], "min" : [-1.0215535163879395, -0.4317631423473358, -1.8133344650268555], "name" : "POSITION"}, {"bufferView" : 1, "byteOffset" : 12, "componentType" : 5126, "count" : 54530, "type" : "VEC2", "max" : [12.062932968139648, 12.167696952819824], "min" : [-11.071439743041992, -11.167698860168457], "name" : "TEXCOORD_0"}, {"bufferView" : 1, "byteOffset" : 20, "componentType" : 5126, "count" : 54530, "type" : "VEC3", "max" : [1.0000044107437134, 1.0000044107437134, 1.0000044107437134], "min" : [-1.0000044107437134, -1.0000044107437134, -1.0000044107437134], "name" : "NORMAL"}, {"bufferView" : 0, "byteOffset" : 134664, "componentType" : 5123, "count" : 8184, "type" : "SCALAR", "max" : [6819], "min" : [0]}, {"bufferView" : 2, "byteOffset" : 0, "componentType" : 5126, "count" : 6820, "type" : "VEC3", "max" : [1.1940258741378784, -0.4005475640296936, 0.9065736532211304], "min" : [-1.1940258741378784, -0.7593026757240295, -1.4480347633361816], "name" : "POSITION"}, {"bufferView" : 2, "byteOffset" : 12, "componentType" : 5126, "count" : 6820, "type" : "VEC2", "max" : [10.001453399658203, 8.975184440612793], "min" : [-8.077740669250488, -9.916604042053223], "name" : "TEXCOORD_0"}, {"bufferView" : 2, "byteOffset" : 20, "componentType" : 5126, "count" : 6820, "type" : "VEC3", "max" : [1.0000044107437134, 1.0000044107437134, 1.0000044107437134], "min" : [-1.0000044107437134, -1.0000044107437134, -1.0000044107437134], "name" : "NORMAL"}, {"bufferView" : 0, "byteOffset" : 151032, "componentType" : 5123, "count" : 2040, "type" : "SCALAR", "max" : [1699], "min" : [0]}, {"bufferView" : 3, "byteOffset" : 0, "componentType" : 5126, "count" : 1700, "type" : "VEC3", "max" : [1.189145565032959, -0.7593026757240295, 0.9016933441162109], "min" : [-1.189145565032959, -0.7911221385002136, -1.4431544542312622], "name" : "POSITION"}, {"bufferView" : 3, "byteOffset" : 12, "componentType" : 5126, "count" : 1700, "type" : "VEC2", "max" : [10.43233585357666, 3.372811794281006], "min" : [-7.427151203155518, -10.147676467895508], "name" : "TEXCOORD_0"}, {"bufferView" : 3, "byteOffset" : 20, "componentType" : 5126, "count" : 1700, "type" : "VEC3", "max" : [1.0000044107437134, -0.00018193389405496418, 1.0000044107437134], "min" : [-1.0000044107437134, -1.0000044107437134, -1.0000044107437134], "name" : "NORMAL"}, {"bufferView" : 0, "byteOffset" : 155112, "componentType" : 5123, "count" : 7536, "type" : "SCALAR", "max" : [6055], "min" : [0]}, {"bufferView" : 4, "byteOffset" : 0, "componentType" : 5126, "count" : 6056, "type" : "VEC3", "max" : [1.2793145179748535, 0.9337745904922485, 0.9510186314582825], "min" : [-1.2793145179748535, -0.4376126527786255, -1.5966880321502686], "name" : "POSITION"}, {"bufferView" : 4, "byteOffset" : 12, "componentType" : 5126, "count" : 6056, "type" : "VEC2", "max" : [11.018771171569824, 12.167696952819824], "min" : [-9.150777816772461, -10.85306167602539], "name" : "TEXCOORD_0"}, {"bufferView" : 4, "byteOffset" : 20, "componentType" : 5126, "count" : 6056, "type" : "VEC3", "max" : [0.9984501600265503, 0.9966741800308228, 0.9966562986373901], "min" : [-0.9984503388404846, -0.998853862285614, -0.9966506958007812], "name" : "NORMAL"}], "asset" : {"generator" : "Aspose.3D 23.2", "version" : "2.0"}, "buffers" : [{"uri" : "data:application/octet-stream;base64,", "byteLength" : 2893148}], "bufferViews" : [{"buffer" : 0, "byteOffset" : 0, "byteLength" : 170184, "target" : 34963}, {"buffer" : 0, "byteOffset" : 170188, "byteLength" : 2154624, "byteStride" : 32, "target" : 34962}, {"buffer" : 0, "byteOffset" : 2324816, "byteLength" : 261888, "byteStride" : 32, "target" : 34962}, {"buffer" : 0, "byteOffset" : 2586708, "byteLength" : 65280, "byteStride" : 32, "target" : 34962}, {"buffer" : 0, "byteOffset" : 2651992, "byteLength" : 241152, "byteStride" : 32, "target" : 34962}], "images" : [{"uri" : "data:image/png;base64,"}], "materials" : [{"name" : "koja", "pbrMetallicRoughness" : {"baseColorFactor" : [1, 1, 1, 1], "metallicFactor" : 0, "roughnessFactor" : 1, "metallicRoughnessTexture" : {"index" : 0, "texCoord" : 0}}, "emissiveFactor" : [0, 0, 0], "alphaMode" : "OPAQUE", "doubleSided" : true}, {"name" : "mtetal", "pbrMetallicRoughness" : {"baseColorFactor" : [0.15224558115005493, 0.15224558115005493, 0.15224558115005493, 1], "metallicFactor" : 1, "roughnessFactor" : 0.3909091055393219}, "emissiveFactor" : [0, 0, 0], "alphaMode" : "OPAQUE", "doubleSided" : true}, {"name" : "plastik", "pbrMetallicRoughness" : {"baseColorFactor" : [0, 0, 0, 1], "metallicFactor" : 0, "roughnessFactor" : 0.5}, "emissiveFactor" : [0, 0, 0], "alphaMode" : "OPAQUE", "doubleSided" : true}, {"name" : "koja", "pbrMetallicRoughness" : {"baseColorFactor" : [1, 1, 1, 1], "metallicFactor" : 0, "roughnessFactor" : 1, "metallicRoughnessTexture" : {"index" : 0, "texCoord" : 0}}, "emissiveFactor" : [0, 0, 0], "alphaMode" : "OPAQUE", "doubleSided" : true}], "meshes" : [{"primitives" : [{"attributes" : {"POSITION" : 1, "TEXCOORD_0" : 2, "NORMAL" : 3}, "indices" : 0, "material" : 0, "mode" : 4}, {"attributes" : {"POSITION" : 5, "TEXCOORD_0" : 6, "NORMAL" : 7}, "indices" : 4, "material" : 1, "mode" : 4}, {"attributes" : {"POSITION" : 9, "TEXCOORD_0" : 10, "NORMAL" : 11}, "indices" : 8, "material" : 2, "mode" : 4}]}, {"primitives" : [{"attributes" : {"POSITION" : 13, "TEXCOORD_0" : 14, "NORMAL" : 15}, "indices" : 12, "material" : 3, "mode" : 4}]}], "nodes" : [{"mesh" : 0, "name" : "Cube"}, {"mesh" : 1, "name" : "Cube.001"}], "samplers" : [{"magFilter" : 9729, "minFilter" : 9987, "wrapS" : 10497, "wrapT" : 10497}], "scene" : 0, "scenes" : [{"nodes" : [0, 1]}], "textures" : [{"sampler" : 0, "source" : 0, "name" : ""}]}